<?xml version="1.0" encoding="UTF-8"?>
<svg xmlns="http://www.w3.org/2000/svg" width="140" height="60" viewBox="0 0 140 60" fill="none">
  <path d="M1.53 51.1591L3.14921 56.5787H3.17598L4.71936 51.1591H5.58918L7.13256 56.5787H7.15486L8.77408 51.1591H9.59483L7.56078 57.4842H6.71326L5.1565 52.1627H5.12974L3.58635 57.4842H2.73884L0.704788 51.1591H1.52554H1.53Z" fill="#4F7371"></path>
  <path d="M10.7635 55.3966C10.8393 55.6954 10.9642 55.9631 11.1382 56.1995C11.3122 56.4359 11.5263 56.6322 11.7894 56.7883C12.0526 56.9444 12.3649 57.0202 12.7351 57.0202C13.2971 57.0202 13.7387 56.873 14.0599 56.5786C14.3766 56.2842 14.5996 55.8917 14.7201 55.401H15.4918C15.3267 56.1192 15.0279 56.6768 14.5907 57.0693C14.1536 57.4618 13.5336 57.6581 12.7351 57.6581C12.2355 57.6581 11.8073 57.5689 11.4415 57.3949C11.0757 57.221 10.7813 56.9801 10.5538 56.6723C10.3264 56.3645 10.1569 56.0121 10.0453 55.6062C9.93382 55.2003 9.88029 54.7765 9.88029 54.326C9.88029 53.9112 9.93382 53.5008 10.0453 53.0993C10.1569 52.6979 10.3264 52.341 10.5538 52.0243C10.7813 51.7076 11.0802 51.4578 11.4415 51.266C11.8028 51.0742 12.2355 50.9761 12.7351 50.9761C13.2347 50.9761 13.6763 51.0787 14.0331 51.2839C14.3944 51.489 14.6844 51.7567 14.9119 52.0868C15.1349 52.4169 15.3 52.796 15.3981 53.2287C15.4962 53.6569 15.5364 54.0941 15.523 54.5357H10.6564C10.6564 54.8122 10.6966 55.1022 10.7724 55.401L10.7635 55.3966ZM14.5907 53.0369C14.497 52.7692 14.3632 52.5284 14.1937 52.3187C14.0198 52.1091 13.8146 51.944 13.5692 51.8147C13.3239 51.6898 13.0473 51.6229 12.7351 51.6229C12.4229 51.6229 12.1329 51.6853 11.8876 51.8147C11.6422 51.9396 11.4326 52.1091 11.2631 52.3187C11.0891 52.5284 10.9553 52.7692 10.8527 53.0413C10.7501 53.3134 10.6832 53.5945 10.652 53.8799H14.7468C14.7379 53.5855 14.6889 53.3045 14.5952 53.0324L14.5907 53.0369Z" fill="#4F7371"></path>
  <path d="M17.3474 48.7325V52.3634H17.3742C17.4544 52.136 17.5704 51.9352 17.7221 51.7613C17.8737 51.5918 18.0477 51.4446 18.244 51.3241C18.4402 51.2037 18.6544 51.1189 18.8819 51.0609C19.1093 51.0029 19.3413 50.9762 19.5688 50.9762C20.0505 50.9762 20.4698 51.0654 20.8267 51.2438C21.1835 51.4223 21.4779 51.6676 21.7144 51.9754C21.9508 52.2832 22.1247 52.6355 22.2407 53.0415C22.3567 53.4474 22.4102 53.8711 22.4102 54.3217C22.4102 54.7722 22.3522 55.2004 22.2407 55.6019C22.1247 56.0078 21.9508 56.3602 21.7144 56.668C21.4779 56.9757 21.1791 57.2166 20.8267 57.3906C20.4698 57.5645 20.0505 57.6538 19.5688 57.6538C19.0558 57.6538 18.5964 57.5333 18.1905 57.2969C17.7845 57.0605 17.4946 56.7215 17.3117 56.2799H17.2849V57.4798H16.5757V48.728H17.3474V48.7325ZM21.5225 53.3492C21.4467 53.0281 21.3218 52.7381 21.1568 52.4839C20.9873 52.2296 20.7732 52.0244 20.5144 51.8639C20.2557 51.7033 19.939 51.623 19.5688 51.623C19.1584 51.623 18.8149 51.7033 18.5339 51.8639C18.2529 52.0244 18.0209 52.2296 17.847 52.4839C17.673 52.7381 17.5437 53.0236 17.4678 53.3492C17.392 53.6704 17.3519 53.996 17.3519 54.3261C17.3519 54.6562 17.392 54.9774 17.4678 55.303C17.5437 55.6242 17.673 55.9141 17.847 56.1684C18.0209 56.4226 18.2529 56.6278 18.5339 56.7884C18.8149 56.949 19.1629 57.0293 19.5688 57.0293C19.9346 57.0293 20.2513 56.949 20.5144 56.7884C20.7776 56.6278 20.9917 56.4226 21.1568 56.1684C21.3263 55.9141 21.4467 55.6286 21.5225 55.303C21.5984 54.9818 21.6385 54.6562 21.6385 54.3261C21.6385 53.996 21.5984 53.6749 21.5225 53.3492Z" fill="#4F7371"></path>
  <path d="M27.8344 55.3966C27.9102 55.6954 28.0351 55.9631 28.2091 56.1995C28.383 56.4359 28.5971 56.6322 28.8603 56.7883C29.1235 56.9444 29.4357 57.0202 29.806 57.0202C30.368 57.0202 30.8096 56.873 31.1308 56.5786C31.4475 56.2842 31.6705 55.8917 31.7909 55.401H32.5626C32.3976 56.1192 32.0987 56.6768 31.6616 57.0693C31.2244 57.4618 30.6044 57.6581 29.806 57.6581C29.3064 57.6581 28.8781 57.5689 28.5124 57.3949C28.1466 57.221 27.8522 56.9801 27.6247 56.6723C27.3972 56.3645 27.2277 56.0121 27.1162 55.6062C27.0047 55.2003 26.9511 54.7765 26.9511 54.326C26.9511 53.9112 27.0047 53.5008 27.1162 53.0993C27.2277 52.6979 27.3972 52.341 27.6247 52.0243C27.8522 51.7076 28.1511 51.4578 28.5124 51.266C28.8737 51.0742 29.3064 50.9761 29.806 50.9761C30.3055 50.9761 30.7471 51.0787 31.104 51.2839C31.4653 51.489 31.7553 51.7567 31.9827 52.0868C32.2058 52.4169 32.3708 52.796 32.469 53.2287C32.5671 53.6614 32.6072 54.0941 32.5938 54.5357H27.7273C27.7273 54.8122 27.7674 55.1022 27.8433 55.401L27.8344 55.3966ZM31.6616 53.0369C31.5679 52.7692 31.4341 52.5284 31.2646 52.3187C31.0906 52.1091 30.8854 51.944 30.6401 51.8147C30.3948 51.6898 30.1182 51.6229 29.806 51.6229C29.4937 51.6229 29.2038 51.6853 28.9584 51.8147C28.7131 51.9396 28.5035 52.1091 28.3339 52.3187C28.16 52.5284 28.0262 52.7692 27.9236 53.0413C27.821 53.3134 27.7541 53.5945 27.7228 53.8799H31.8177C31.8088 53.5855 31.7597 53.3045 31.666 53.0324L31.6616 53.0369Z" fill="#4F7371"></path>
  <path d="M32.808 51.159H33.7759L35.578 53.5633L37.3444 51.159H38.3124L36.033 54.1878L38.4953 57.4842H37.5139L35.529 54.8256L33.5796 57.4842H32.6251L35.0784 54.1967L32.8124 51.1545L32.808 51.159Z" fill="#4F7371"></path>
  <path d="M39.9762 51.159V52.3589H40.003C40.1814 51.9173 40.4758 51.5783 40.8817 51.333C41.2876 51.0921 41.7471 50.9717 42.26 50.9717C42.7418 50.9717 43.1611 51.0609 43.518 51.2393C43.8748 51.4177 44.1692 51.6631 44.4056 51.9709C44.642 52.2786 44.816 52.631 44.932 53.037C45.0479 53.4429 45.1015 53.8666 45.1015 54.3172C45.1015 54.7677 45.0435 55.1959 44.932 55.5974C44.816 56.0033 44.642 56.3557 44.4056 56.6635C44.1692 56.9712 43.8703 57.2121 43.518 57.3861C43.1611 57.56 42.7418 57.6493 42.26 57.6493C42.0326 57.6493 41.8006 57.6225 41.5731 57.5645C41.3456 57.5065 41.1315 57.4218 40.9352 57.3058C40.739 57.1898 40.565 57.0471 40.4133 56.8776C40.2617 56.7081 40.1457 56.5073 40.0654 56.2754H40.0386V59.8082H39.267V51.1546H39.9762V51.159ZM44.2138 53.3492C44.138 53.028 44.0131 52.7381 43.848 52.4838C43.6785 52.2296 43.4644 52.0244 43.2057 51.8638C42.947 51.7032 42.6303 51.6229 42.26 51.6229C41.8363 51.6229 41.4794 51.6943 41.194 51.8415C40.9085 51.9887 40.681 52.185 40.507 52.4303C40.3375 52.6756 40.2126 52.9611 40.1457 53.2868C40.0743 53.6124 40.0431 53.9558 40.0431 54.3172C40.0431 54.6428 40.0832 54.9684 40.1591 55.294C40.2349 55.6152 40.3643 55.9051 40.5382 56.1594C40.7122 56.4137 40.9442 56.6188 41.2252 56.7794C41.5062 56.94 41.8541 57.0203 42.26 57.0203C42.6258 57.0203 42.9425 56.94 43.2057 56.7794C43.4689 56.6188 43.683 56.4137 43.848 56.1594C44.0175 55.9051 44.138 55.6197 44.2138 55.294C44.2896 54.9729 44.3298 54.6472 44.3298 54.3172C44.3298 53.9871 44.2896 53.6659 44.2138 53.3403V53.3492Z" fill="#4F7371"></path>
  <path d="M46.8411 55.3966C46.917 55.6954 47.0418 55.9631 47.2158 56.1995C47.3898 56.4359 47.6039 56.6322 47.8671 56.7883C48.1303 56.9444 48.4425 57.0202 48.8127 57.0202C49.3748 57.0202 49.8164 56.873 50.1375 56.5786C50.4542 56.2842 50.6773 55.8917 50.7977 55.401H51.5694C51.4044 56.1192 51.1055 56.6768 50.6684 57.0693C50.2312 57.4618 49.6112 57.6581 48.8127 57.6581C48.3131 57.6581 47.8849 57.5689 47.5191 57.3949C47.1534 57.221 46.859 56.9801 46.6315 56.6723C46.404 56.3645 46.2345 56.0121 46.123 55.6062C46.0114 55.2003 45.9579 54.7765 45.9579 54.326C45.9579 53.9112 46.0114 53.5008 46.123 53.0993C46.2345 52.6979 46.404 52.341 46.6315 52.0243C46.859 51.7076 47.1578 51.4578 47.5191 51.266C47.8804 51.0742 48.3131 50.9761 48.8127 50.9761C49.3123 50.9761 49.7539 51.0787 50.1108 51.2839C50.4721 51.489 50.762 51.7567 50.9895 52.0868C51.2125 52.4169 51.3776 52.796 51.4757 53.2287C51.5739 53.6614 51.614 54.0941 51.6006 54.5357H46.7341C46.7341 54.8122 46.7742 55.1022 46.85 55.401L46.8411 55.3966ZM50.6684 53.0369C50.5747 52.7692 50.4409 52.5284 50.2713 52.3187C50.0974 52.1091 49.8922 51.944 49.6469 51.8147C49.4015 51.6898 49.125 51.6229 48.8127 51.6229C48.5005 51.6229 48.2105 51.6853 47.9652 51.8147C47.7199 51.9396 47.5102 52.1091 47.3407 52.3187C47.1667 52.5284 47.0329 52.7692 46.9303 53.0413C46.8277 53.3134 46.7608 53.5945 46.7296 53.8799H50.8245C50.8155 53.5855 50.7665 53.3045 50.6728 53.0324L50.6684 53.0369Z" fill="#4F7371"></path>
  <path d="M53.3626 51.159V52.6444H53.3893C53.5856 52.1314 53.8889 51.7344 54.3038 51.4534C54.7141 51.1768 55.2093 51.0475 55.7802 51.0742V51.8459C55.4278 51.8281 55.1111 51.8772 54.8257 51.9887C54.5402 52.1002 54.2904 52.2563 54.0852 52.4615C53.8755 52.6667 53.715 52.9076 53.599 53.193C53.483 53.4785 53.4295 53.7818 53.4295 54.1209V57.4931H52.6578V51.1679H53.367L53.3626 51.159Z" fill="#4F7371"></path>
  <path d="M57.3147 48.7324V49.9725H56.543V48.7324H57.3147ZM57.3147 51.159V57.4842H56.543V51.159H57.3147Z" fill="#4F7371"></path>
  <path d="M59.3487 55.3966C59.4246 55.6954 59.5495 55.9631 59.7234 56.1995C59.8974 56.4359 60.1115 56.6322 60.3747 56.7883C60.6379 56.9444 60.9501 57.0202 61.3203 57.0202C61.8824 57.0202 62.324 56.873 62.6451 56.5786C62.9619 56.2842 63.1849 55.8917 63.3053 55.401H64.077C63.912 56.1192 63.6131 56.6768 63.176 57.0693C62.7388 57.4618 62.1188 57.6581 61.3203 57.6581C60.8207 57.6581 60.3925 57.5689 60.0268 57.3949C59.661 57.221 59.3666 56.9801 59.1391 56.6723C58.9116 56.3645 58.7421 56.0121 58.6306 55.6062C58.5191 55.2003 58.4655 54.7765 58.4655 54.326C58.4655 53.9112 58.5191 53.5008 58.6306 53.0993C58.7421 52.6979 58.9116 52.341 59.1391 52.0243C59.3666 51.7076 59.6654 51.4578 60.0268 51.266C60.3881 51.0742 60.8207 50.9761 61.3203 50.9761C61.8199 50.9761 62.2615 51.0787 62.6184 51.2839C62.9797 51.489 63.2696 51.7567 63.4971 52.0868C63.7202 52.4169 63.8852 52.796 63.9833 53.2287C64.0815 53.6569 64.1216 54.0941 64.1082 54.5357H59.2417C59.2417 54.8122 59.2818 55.1022 59.3577 55.401L59.3487 55.3966ZM63.176 53.0369C63.0823 52.7692 62.9485 52.5284 62.779 52.3187C62.605 52.1091 62.3998 51.944 62.1545 51.8147C61.9092 51.6898 61.6326 51.6229 61.3203 51.6229C61.0081 51.6229 60.7182 51.6853 60.4728 51.8147C60.2275 51.9396 60.0178 52.1091 59.8483 52.3187C59.6744 52.5284 59.5405 52.7692 59.4379 53.0413C59.3354 53.3134 59.2685 53.5945 59.2372 53.8799H63.3321C63.3232 53.5855 63.2741 53.3045 63.1804 53.0324L63.176 53.0369Z" fill="#4F7371"></path>
  <path d="M65.9237 51.159V52.2518H65.9505C66.0977 51.8682 66.3609 51.5604 66.7356 51.324C67.1102 51.0921 67.5251 50.9761 67.9756 50.9761C68.4261 50.9761 68.7874 51.0341 69.0863 51.1456C69.3852 51.2616 69.6216 51.4221 69.8045 51.6318C69.9874 51.8414 70.1123 52.0957 70.1836 52.399C70.2595 52.7023 70.2951 53.0413 70.2951 53.416V57.4886H69.5235V53.5409C69.5235 53.2733 69.5011 53.019 69.4521 52.7871C69.403 52.5551 69.3183 52.3499 69.1934 52.1804C69.0729 52.0109 68.9034 51.8727 68.6982 51.7745C68.4886 51.6764 68.2299 51.6273 67.9176 51.6273C67.6054 51.6273 67.3333 51.6808 67.0879 51.7924C66.8471 51.9039 66.6419 52.0555 66.4768 52.2474C66.3073 52.4392 66.178 52.6667 66.0843 52.9343C65.9906 53.2019 65.9371 53.4874 65.9326 53.7997V57.4886H65.1609V51.1634H65.9326L65.9237 51.159Z" fill="#4F7371"></path>
  <path d="M75.5765 52.0333C75.2911 51.7657 74.8896 51.6274 74.3766 51.6274C74.0109 51.6274 73.6852 51.7032 73.4087 51.8593C73.1321 52.0155 72.9002 52.2207 72.7173 52.4705C72.5344 52.7247 72.3961 53.0102 72.3024 53.3358C72.2088 53.657 72.1597 53.9871 72.1597 54.3216C72.1597 54.6562 72.2088 54.9863 72.3024 55.3074C72.3961 55.6286 72.5344 55.9185 72.7173 56.1728C72.9002 56.427 73.1321 56.6322 73.4087 56.7839C73.6852 56.94 74.0109 57.0158 74.3766 57.0158C74.613 57.0158 74.8361 56.9712 75.0502 56.882C75.2643 56.7928 75.4516 56.6679 75.6122 56.5073C75.7773 56.3467 75.9111 56.1594 76.0181 55.9364C76.1252 55.7178 76.1876 55.4769 76.2144 55.2137H76.9861C76.879 55.981 76.598 56.5787 76.1386 57.0114C75.6791 57.4441 75.0903 57.6537 74.3722 57.6537C73.8904 57.6537 73.4622 57.5645 73.092 57.3905C72.7217 57.2166 72.4095 56.9757 72.1552 56.6724C71.901 56.369 71.7092 56.0167 71.5798 55.6107C71.4504 55.2048 71.3835 54.7766 71.3835 54.3172C71.3835 53.8577 71.4504 53.4295 71.5798 53.0236C71.7092 52.6177 71.901 52.2653 72.1552 51.9619C72.4095 51.6586 72.7217 51.4177 73.092 51.2393C73.4622 51.0609 73.8904 50.9717 74.3722 50.9717C75.0502 50.9717 75.6256 51.1501 76.094 51.5114C76.5623 51.8727 76.8433 52.4125 76.9326 53.144H76.1609C76.0538 52.6712 75.8576 52.2965 75.5721 52.0289L75.5765 52.0333Z" fill="#4F7371"></path>
  <path d="M78.6276 55.3966C78.7034 55.6954 78.8283 55.9631 79.0023 56.1995C79.1763 56.4359 79.3904 56.6322 79.6536 56.7883C79.9167 56.9444 80.229 57.0202 80.5992 57.0202C81.1612 57.0202 81.6028 56.873 81.924 56.5786C82.2407 56.2842 82.4638 55.8917 82.5842 55.401H83.3559C83.1908 56.1192 82.892 56.6768 82.4548 57.0693C82.0177 57.4618 81.3977 57.6581 80.5992 57.6581C80.0996 57.6581 79.6714 57.5689 79.3056 57.3949C78.9399 57.221 78.6455 56.9801 78.418 56.6723C78.1905 56.3645 78.021 56.0121 77.9094 55.6062C77.7979 55.2003 77.7444 54.7765 77.7444 54.326C77.7444 53.9112 77.7979 53.5008 77.9094 53.0993C78.021 52.6979 78.1905 52.341 78.418 52.0243C78.6455 51.7076 78.9443 51.4578 79.3056 51.266C79.6669 51.0742 80.0996 50.9761 80.5992 50.9761C81.0988 50.9761 81.5404 51.0787 81.8973 51.2839C82.2586 51.489 82.5485 51.7567 82.776 52.0868C82.999 52.4169 83.1641 52.796 83.2622 53.2287C83.3603 53.6614 83.4005 54.0941 83.3871 54.5357H78.5205C78.5205 54.8122 78.5607 55.1022 78.6365 55.401L78.6276 55.3966ZM82.4548 53.0369C82.3612 52.7692 82.2273 52.5284 82.0578 52.3187C81.8839 52.1091 81.6787 51.944 81.4334 51.8147C81.188 51.6898 80.9114 51.6229 80.5992 51.6229C80.287 51.6229 79.997 51.6853 79.7517 51.8147C79.5064 51.9396 79.2967 52.1091 79.1272 52.3187C78.9532 52.5284 78.8194 52.7692 78.7168 53.0413C78.6142 53.3134 78.5473 53.5945 78.5161 53.8799H82.611C82.602 53.5855 82.553 53.3045 82.4593 53.0324L82.4548 53.0369Z" fill="#4F7371"></path>
  <path d="M92.9284 57.4886V56.2887H92.9016C92.8214 56.4939 92.7009 56.6813 92.5403 56.8508C92.3797 57.0203 92.1969 57.1675 91.9961 57.2879C91.7954 57.4083 91.5724 57.4976 91.3404 57.5645C91.1085 57.6314 90.8765 57.6626 90.649 57.6626C90.1673 57.6626 89.748 57.5734 89.3911 57.3994C89.0343 57.2255 88.7399 56.9846 88.5034 56.6768C88.267 56.369 88.0886 56.0166 87.9771 55.6107C87.8611 55.2048 87.8031 54.781 87.8031 54.3305C87.8031 53.88 87.8611 53.4518 87.9771 53.0503C88.0931 52.6444 88.267 52.292 88.5034 51.9842C88.7399 51.6764 89.0387 51.4356 89.3911 51.2527C89.748 51.0742 90.1673 50.985 90.649 50.985C90.8854 50.985 91.1174 51.0118 91.3404 51.0698C91.5635 51.1278 91.7776 51.217 91.9738 51.333C92.1701 51.4534 92.3441 51.5961 92.4957 51.7701C92.6474 51.9396 92.7634 52.1403 92.8437 52.3723H92.8704V48.7413H93.6421V57.4931H92.9329L92.9284 57.4886ZM88.6908 55.2985C88.7666 55.6196 88.8915 55.9096 89.0566 56.1638C89.2261 56.4181 89.4402 56.6233 89.6989 56.7839C89.9621 56.9444 90.2743 57.0247 90.6446 57.0247C91.0549 57.0247 91.3984 56.9444 91.6794 56.7839C91.9604 56.6233 92.1879 56.4181 92.3664 56.1638C92.5403 55.9096 92.6697 55.6241 92.7455 55.2985C92.8213 54.9773 92.8615 54.6517 92.8615 54.3216C92.8615 53.9915 92.8213 53.6703 92.7455 53.3447C92.6697 53.0235 92.5403 52.7336 92.3664 52.4793C92.1924 52.2251 91.9604 52.0199 91.6794 51.8593C91.3984 51.6987 91.0505 51.6184 90.6446 51.6184C90.2788 51.6184 89.9621 51.6987 89.6989 51.8593C89.4357 52.0199 89.2216 52.2251 89.0566 52.4793C88.8871 52.7336 88.7666 53.0191 88.6908 53.3447C88.615 53.6659 88.5748 53.9915 88.5748 54.3216C88.5748 54.6517 88.615 54.9728 88.6908 55.2985Z" fill="#4F7371"></path>
  <path d="M95.6672 55.3966C95.7431 55.6954 95.868 55.9631 96.0419 56.1995C96.2159 56.4359 96.43 56.6322 96.6932 56.7883C96.9564 56.9444 97.2686 57.0202 97.6388 57.0202C98.2009 57.0202 98.6425 56.873 98.9636 56.5786C99.2803 56.2842 99.5034 55.8917 99.6238 55.401H100.396C100.23 56.1192 99.9316 56.6768 99.4945 57.0693C99.0573 57.4618 98.4373 57.6581 97.6388 57.6581C97.1392 57.6581 96.711 57.5689 96.3452 57.3949C95.9795 57.221 95.6851 56.9801 95.4576 56.6723C95.2301 56.3645 95.0606 56.0121 94.9491 55.6062C94.8376 55.2003 94.784 54.7765 94.784 54.326C94.784 53.9112 94.8376 53.5008 94.9491 53.0993C95.0606 52.6979 95.2301 52.341 95.4576 52.0243C95.6851 51.7076 95.9839 51.4578 96.3452 51.266C96.7066 51.0742 97.1392 50.9761 97.6388 50.9761C98.1384 50.9761 98.58 51.0787 98.9369 51.2839C99.2982 51.489 99.5881 51.7567 99.8156 52.0868C100.039 52.4169 100.204 52.796 100.302 53.2287C100.4 53.6569 100.44 54.0941 100.427 54.5357H95.5602C95.5602 54.8122 95.6003 55.1022 95.6762 55.401L95.6672 55.3966ZM99.4945 53.0369C99.4008 52.7692 99.267 52.5284 99.0975 52.3187C98.9235 52.1091 98.7183 51.944 98.473 51.8147C98.2276 51.6898 97.9511 51.6229 97.6388 51.6229C97.3266 51.6229 97.0366 51.6853 96.7913 51.8147C96.546 51.9396 96.3363 52.1091 96.1668 52.3187C95.9929 52.5284 95.859 52.7692 95.7564 53.0413C95.6538 53.3134 95.5869 53.5945 95.5557 53.8799H99.6506C99.6417 53.5855 99.5926 53.3045 99.4989 53.0324L99.4945 53.0369Z" fill="#4F7371"></path>
  <path d="M105.133 52.3946C105.043 52.2206 104.923 52.0734 104.771 51.9574C104.62 51.8414 104.446 51.7611 104.249 51.7076C104.053 51.6541 103.844 51.6273 103.625 51.6273C103.456 51.6273 103.282 51.6452 103.103 51.6808C102.929 51.7165 102.764 51.779 102.617 51.8637C102.47 51.9485 102.349 52.06 102.26 52.2027C102.171 52.341 102.126 52.515 102.126 52.7157C102.126 52.8852 102.171 53.0324 102.256 53.1529C102.34 53.2733 102.452 53.3714 102.581 53.4517C102.711 53.532 102.853 53.5989 103.009 53.6525C103.166 53.706 103.308 53.7506 103.438 53.7818L104.468 54.0138C104.691 54.045 104.905 54.1074 105.124 54.1922C105.342 54.2769 105.534 54.3885 105.699 54.5312C105.869 54.6695 106.003 54.8434 106.11 55.0442C106.217 55.2494 106.27 55.4902 106.27 55.7668C106.27 56.1103 106.194 56.4002 106.038 56.6455C105.882 56.8864 105.686 57.0827 105.445 57.2343C105.204 57.386 104.932 57.4931 104.629 57.56C104.325 57.6269 104.026 57.6581 103.732 57.6581C102.987 57.6581 102.385 57.4841 101.925 57.1317C101.462 56.7794 101.198 56.2173 101.136 55.4412H101.908C101.939 55.9631 102.131 56.3601 102.479 56.6232C102.827 56.8909 103.259 57.0202 103.772 57.0202C103.96 57.0202 104.156 56.9979 104.357 56.9578C104.557 56.9176 104.745 56.8463 104.914 56.7481C105.084 56.65 105.226 56.5251 105.338 56.3734C105.449 56.2218 105.503 56.0344 105.503 55.8159C105.503 55.6285 105.463 55.4724 105.387 55.343C105.311 55.2181 105.204 55.1111 105.075 55.0263C104.945 54.9416 104.794 54.8702 104.629 54.8122C104.459 54.7542 104.29 54.7052 104.12 54.665L103.125 54.4464C102.871 54.3795 102.639 54.3037 102.425 54.219C102.211 54.1342 102.028 54.0271 101.868 53.9022C101.707 53.7774 101.582 53.6212 101.493 53.4383C101.404 53.2555 101.359 53.028 101.359 52.7559C101.359 52.4392 101.43 52.1626 101.573 51.9351C101.716 51.7076 101.903 51.5203 102.131 51.382C102.358 51.2437 102.617 51.1411 102.898 51.0742C103.179 51.0073 103.46 50.9761 103.737 50.9761C104.053 50.9761 104.352 51.0162 104.624 51.0965C104.896 51.1768 105.137 51.3062 105.347 51.4757C105.556 51.6452 105.721 51.8593 105.842 52.1135C105.967 52.3678 106.034 52.6667 106.052 53.0101H105.28C105.271 52.7737 105.222 52.5685 105.133 52.3901V52.3946Z" fill="#4F7371"></path>
  <path d="M108.135 48.7324V49.9725H107.363V48.7324H108.135ZM108.135 51.159V57.4842H107.363V51.159H108.135Z" fill="#4F7371"></path>
  <path d="M114.786 58.2336C114.683 58.6083 114.522 58.9294 114.299 59.1881C114.076 59.4513 113.791 59.6476 113.434 59.7903C113.077 59.9286 112.644 60 112.127 60C111.81 60 111.498 59.9643 111.195 59.8885C110.891 59.8126 110.619 59.7011 110.378 59.545C110.138 59.3889 109.937 59.1926 109.776 58.9517C109.616 58.7109 109.526 58.4209 109.5 58.0864H110.271C110.312 58.3228 110.392 58.5235 110.512 58.6796C110.633 58.8402 110.775 58.9696 110.94 59.0677C111.11 59.1658 111.293 59.2372 111.498 59.2818C111.703 59.3264 111.908 59.3487 112.123 59.3487C112.841 59.3487 113.363 59.1435 113.679 58.7376C113.996 58.3272 114.157 57.7384 114.157 56.9712V56.1148H114.13C113.951 56.5073 113.688 56.824 113.34 57.0604C112.992 57.2968 112.586 57.4173 112.123 57.4173C111.614 57.4173 111.181 57.3325 110.824 57.1675C110.463 56.998 110.169 56.7705 109.937 56.4761C109.705 56.1817 109.535 55.8382 109.428 55.4412C109.321 55.0442 109.268 54.6205 109.268 54.1744C109.268 53.7283 109.33 53.3313 109.46 52.9433C109.584 52.5552 109.772 52.2162 110.013 51.9262C110.254 51.6363 110.552 51.4088 110.909 51.2393C111.266 51.0698 111.672 50.9895 112.127 50.9895C112.363 50.9895 112.586 51.0207 112.796 51.0876C113.006 51.1545 113.193 51.2438 113.367 51.3642C113.541 51.4846 113.693 51.6184 113.826 51.7746C113.96 51.9307 114.067 52.0913 114.139 52.2652H114.165V51.1724H114.937V56.9846C114.937 57.4485 114.888 57.8723 114.786 58.247V58.2336ZM113.015 56.5474C113.269 56.4047 113.479 56.2174 113.653 55.9854C113.822 55.7535 113.951 55.4858 114.041 55.1825C114.125 54.8792 114.17 54.5714 114.17 54.2502C114.17 53.9291 114.134 53.6302 114.058 53.318C113.987 53.0057 113.867 52.7247 113.702 52.4704C113.537 52.2162 113.327 52.011 113.068 51.8593C112.809 51.7032 112.497 51.6274 112.131 51.6274C111.766 51.6274 111.449 51.7032 111.186 51.8549C110.923 52.0065 110.708 52.2028 110.535 52.4481C110.365 52.6935 110.24 52.9745 110.16 53.2867C110.084 53.6034 110.044 53.9201 110.044 54.2502C110.044 54.5803 110.084 54.8792 110.164 55.1825C110.245 55.4858 110.374 55.7535 110.543 55.9854C110.717 56.2174 110.932 56.4047 111.195 56.5474C111.458 56.6902 111.766 56.7616 112.127 56.7616C112.462 56.7616 112.756 56.6902 113.01 56.5474H113.015Z" fill="#4F7371"></path>
  <path d="M117.127 51.159V52.2518H117.154C117.301 51.8682 117.564 51.5604 117.939 51.324C118.314 51.0921 118.729 50.9761 119.179 50.9761C119.63 50.9761 119.991 51.0341 120.29 51.1456C120.589 51.2616 120.825 51.4221 121.008 51.6318C121.191 51.8414 121.316 52.0957 121.387 52.399C121.463 52.7023 121.499 53.0413 121.499 53.416V57.4886H120.727V53.5409C120.727 53.2733 120.705 53.019 120.656 52.7871C120.607 52.5551 120.522 52.3499 120.397 52.1804C120.277 52.0109 120.107 51.8727 119.902 51.7745C119.692 51.6764 119.433 51.6273 119.121 51.6273C118.809 51.6273 118.537 51.6808 118.292 51.7924C118.051 51.9039 117.846 52.0555 117.68 52.2474C117.511 52.4392 117.382 52.6667 117.288 52.9343C117.194 53.2019 117.141 53.4874 117.136 53.7997V57.4886H116.365V51.1634H117.136L117.127 51.159Z" fill="#4F7371"></path>
  <path d="M123.493 55.3966C123.569 55.6954 123.693 55.9631 123.867 56.1995C124.041 56.4359 124.255 56.6322 124.519 56.7883C124.782 56.9444 125.094 57.0202 125.464 57.0202C126.026 57.0202 126.468 56.873 126.789 56.5786C127.106 56.2842 127.329 55.8917 127.449 55.401H128.221C128.056 56.1192 127.757 56.6768 127.32 57.0693C126.883 57.4618 126.263 57.6581 125.464 57.6581C124.965 57.6581 124.536 57.5689 124.171 57.3949C123.805 57.221 123.511 56.9801 123.283 56.6723C123.056 56.3645 122.886 56.0121 122.775 55.6062C122.663 55.2003 122.609 54.7765 122.609 54.326C122.609 53.9112 122.663 53.5008 122.775 53.0993C122.886 52.6979 123.056 52.341 123.283 52.0243C123.511 51.7076 123.809 51.4578 124.171 51.266C124.532 51.0742 124.965 50.9761 125.464 50.9761C125.964 50.9761 126.405 51.0787 126.762 51.2839C127.124 51.489 127.414 51.7567 127.641 52.0868C127.864 52.4169 128.029 52.796 128.127 53.2287C128.225 53.6614 128.266 54.0941 128.252 54.5357H123.386C123.386 54.8122 123.426 55.1022 123.502 55.401L123.493 55.3966ZM127.32 53.0369C127.226 52.7692 127.092 52.5284 126.923 52.3187C126.749 52.1091 126.544 51.944 126.298 51.8147C126.053 51.6898 125.777 51.6229 125.464 51.6229C125.152 51.6229 124.862 51.6853 124.617 51.8147C124.371 51.9396 124.162 52.1091 123.992 52.3187C123.818 52.5284 123.684 52.7692 123.582 53.0413C123.479 53.3134 123.412 53.5945 123.381 53.8799H127.476C127.467 53.5855 127.418 53.3045 127.324 53.0324L127.32 53.0369Z" fill="#4F7371"></path>
  <path d="M130.014 51.159V52.6444H130.041C130.237 52.1314 130.54 51.7344 130.955 51.4534C131.366 51.1768 131.861 51.0475 132.432 51.0742V51.8459C132.079 51.8281 131.763 51.8772 131.477 51.9887C131.192 52.1002 130.942 52.2563 130.737 52.4615C130.527 52.6667 130.367 52.9076 130.251 53.193C130.135 53.4785 130.081 53.7818 130.081 54.1209V57.4931H129.309V51.1679H130.019L130.014 51.159Z" fill="#4F7371"></path>
  <path d="M136.808 52.3946C136.718 52.2206 136.598 52.0734 136.446 51.9574C136.295 51.8414 136.121 51.7611 135.924 51.7076C135.728 51.6541 135.519 51.6273 135.3 51.6273C135.13 51.6273 134.957 51.6452 134.778 51.6808C134.604 51.7165 134.439 51.779 134.292 51.8637C134.145 51.9485 134.024 52.06 133.935 52.2027C133.846 52.341 133.801 52.515 133.801 52.7157C133.801 52.8852 133.846 53.0324 133.931 53.1529C134.015 53.2733 134.127 53.3714 134.256 53.4517C134.386 53.532 134.528 53.5989 134.684 53.6525C134.841 53.706 134.983 53.7506 135.113 53.7818L136.143 54.0138C136.366 54.045 136.58 54.1074 136.799 54.1922C137.017 54.2769 137.209 54.3885 137.374 54.5312C137.544 54.6695 137.677 54.8434 137.785 55.0442C137.892 55.2494 137.945 55.4902 137.945 55.7668C137.945 56.1103 137.869 56.4002 137.713 56.6455C137.557 56.8864 137.361 57.0827 137.12 57.2343C136.879 57.386 136.607 57.4931 136.304 57.56C136 57.6269 135.701 57.6581 135.407 57.6581C134.662 57.6581 134.06 57.4841 133.6 57.1317C133.137 56.7794 132.873 56.2173 132.811 55.4412H133.583C133.614 55.9631 133.806 56.3601 134.154 56.6232C134.502 56.8909 134.934 57.0202 135.447 57.0202C135.635 57.0202 135.831 56.9979 136.032 56.9578C136.232 56.9176 136.42 56.8463 136.589 56.7481C136.759 56.65 136.901 56.5251 137.013 56.3734C137.124 56.2218 137.178 56.0344 137.178 55.8159C137.178 55.6285 137.138 55.4724 137.062 55.343C136.986 55.2181 136.879 55.1111 136.75 55.0263C136.62 54.9416 136.469 54.8702 136.304 54.8122C136.134 54.7542 135.965 54.7052 135.795 54.665L134.8 54.4464C134.546 54.3795 134.314 54.3037 134.1 54.219C133.886 54.1342 133.703 54.0271 133.542 53.9022C133.382 53.7774 133.257 53.6212 133.168 53.4383C133.079 53.2555 133.034 53.028 133.034 52.7559C133.034 52.4392 133.105 52.1626 133.248 51.9351C133.391 51.7076 133.578 51.5203 133.806 51.382C134.033 51.2437 134.292 51.1411 134.573 51.0742C134.854 51.0073 135.135 50.9761 135.411 50.9761C135.728 50.9761 136.027 51.0162 136.299 51.0965C136.571 51.1768 136.812 51.3062 137.022 51.4757C137.231 51.6452 137.396 51.8593 137.517 52.1135C137.642 52.3678 137.709 52.6667 137.727 53.0101H136.955C136.946 52.7737 136.897 52.5685 136.808 52.3901V52.3946Z" fill="#4F7371"></path>
  <path d="M15.9245 42.2377C10.7769 42.2377 6.83815 40.9709 4.10378 38.4372C1.36941 35.9036 0 32.1656 0 27.2232V16.0404C0 11.0579 1.37833 7.29754 4.13055 4.76836C6.88722 2.23471 10.8349 0.967896 15.9825 0.967896C19.4261 0.967896 22.4058 1.5344 24.9171 2.67186C27.4284 3.80486 29.293 5.41515 30.5063 7.50273C31.7196 9.5903 32.1255 12.0927 31.7196 15.01C31.6794 15.2152 31.6081 15.407 31.5055 15.5854C31.4029 15.7683 31.2334 15.8575 30.988 15.8575H25.0911C24.6049 15.8575 24.3818 15.5943 24.422 15.068C24.5023 12.6369 23.8466 10.7322 22.4459 9.35389C21.0497 7.97555 18.9086 7.28862 16.036 7.28862C13.1633 7.28862 11.0847 8.02908 9.5636 9.50555C8.04253 10.9865 7.28422 13.2034 7.28422 16.1608V27.0403C7.28422 29.9977 8.04253 32.2146 9.5636 33.6956C11.0847 35.1765 13.2392 35.9125 16.036 35.9125C18.8328 35.9125 21.13 35.1944 22.5708 33.7536C24.0071 32.3172 24.6272 30.4393 24.4264 28.1332C24.3863 27.6068 24.6093 27.3436 25.0955 27.3436H30.93C31.3761 27.3436 31.6393 27.6291 31.7196 28.1956C32.0006 31.0326 31.5278 33.5038 30.2922 35.6092C29.0566 37.7146 27.2143 39.3472 24.761 40.5025C22.3076 41.6578 19.3636 42.2332 15.92 42.2332L15.9245 42.2377Z" fill="#4F7371"></path>
  <path d="M41.8006 21.4511C40.2617 21.4511 39.1153 21.0675 38.3659 20.2958C37.6165 19.5286 37.2418 18.5116 37.2418 17.2581V16.2233C37.2418 14.9698 37.6165 13.9528 38.3659 13.1856C39.1153 12.4184 40.2617 12.0303 41.8006 12.0303C43.3395 12.0303 44.4859 12.4139 45.2353 13.1856C45.9847 13.9573 46.3594 14.9698 46.3594 16.2233V17.2581C46.3594 18.516 45.9847 19.5286 45.2353 20.2958C44.4859 21.0675 43.3395 21.4511 41.8006 21.4511ZM41.8006 42.2377C40.2617 42.2377 39.1153 41.8541 38.3659 41.0824C37.6165 40.3152 37.2418 39.2981 37.2418 38.0447V37.0098C37.2418 35.7118 37.6165 34.6903 38.3659 33.9409C39.1153 33.1915 40.2617 32.8168 41.8006 32.8168C43.3395 32.8168 44.4859 33.1915 45.2353 33.9409C45.9847 34.6903 46.3594 35.7118 46.3594 37.0098V38.0447C46.3594 39.3026 45.9847 40.3152 45.2353 41.0824C44.4859 41.8496 43.3395 42.2377 41.8006 42.2377Z" fill="#EAB62A"></path>
  <path d="M64.3134 42.2377C60.0178 42.2377 56.7081 41.2029 54.3751 39.1376C52.0467 37.0723 50.8825 33.9722 50.8825 29.8372V23.2756C50.8825 19.145 52.0378 16.0449 54.3484 13.9751C56.659 11.9099 59.9777 10.875 64.3134 10.875C68.6492 10.875 71.9099 11.9099 74.2205 13.9751C76.5311 16.0404 77.6864 19.1406 77.6864 23.2756V29.8372C77.6864 33.9677 76.54 37.0679 74.2517 39.1376C71.9634 41.2029 68.6492 42.2377 64.3134 42.2377ZM64.3134 36.0999C66.4991 36.0999 68.0827 35.5423 69.0551 34.4272C70.0275 33.312 70.5137 31.5634 70.5137 29.1681V23.9402C70.5137 21.5493 70.0275 19.7963 69.0551 18.6811C68.0827 17.566 66.5036 17.0084 64.3134 17.0084C62.1233 17.0084 60.5353 17.566 59.5405 18.6811C58.5458 19.7963 58.0507 21.5493 58.0507 23.9402V29.1681C58.0507 31.559 58.5458 33.312 59.5405 34.4272C60.5308 35.5423 62.1233 36.0999 64.3134 36.0999Z" fill="#4F7371"></path>
  <path d="M90.8453 42.2378C88.0083 42.2378 85.8405 41.3456 84.3417 39.5658C82.8429 37.7816 82.0935 35.0695 82.0935 31.4207V23.1552C82.0935 19.0648 83.057 15.9958 84.9795 13.9484C86.9021 11.901 89.5472 10.8795 92.9106 10.8795C94.3692 10.8795 95.9482 11.0713 97.6522 11.4549C99.3517 11.8385 100.712 12.356 101.725 13.0028L101.97 18.7168C100.837 18.1102 99.6194 17.6552 98.3258 17.3474C97.0277 17.0441 95.8724 16.8924 94.8598 16.8924C92.9552 16.8924 91.5456 17.4812 90.6356 18.6544C89.7257 19.832 89.2662 21.5538 89.2662 23.8198V30.6892C89.2662 32.4734 89.6097 33.8116 90.3011 34.6993C90.988 35.5914 92.0407 36.0375 93.4592 36.0375C94.3915 36.0375 95.2925 35.8546 96.1624 35.4888C97.0322 35.123 97.9645 34.5699 98.9592 33.8161C99.9494 33.0667 101.033 32.0854 102.211 30.8676L102.456 36.1534C101.243 37.3667 100.043 38.4328 98.87 39.3428C97.6924 40.2528 96.4568 40.962 95.1632 41.4705C93.8651 41.9746 92.4288 42.2288 90.8497 42.2288L90.8453 42.2378ZM102.818 41.5107C102.372 41.5107 102.108 41.2876 102.028 40.8416C101.908 40.1948 101.796 39.4231 101.694 38.531C101.591 37.6388 101.542 36.8716 101.542 36.2204L100.993 32.9998V0.727082C100.993 0.240873 101.239 0 101.72 0H107.434C107.921 0 108.166 0.245334 108.166 0.727082V34.2755C108.166 34.9223 108.184 35.6449 108.228 36.4345C108.269 37.224 108.318 37.9823 108.38 38.7139C108.442 39.4409 108.492 40.0699 108.532 40.5962C108.652 41.2029 108.429 41.5062 107.863 41.5062H102.818V41.5107Z" fill="#4F7371"></path>
  <path d="M126.151 42.2377C121.775 42.2377 118.492 41.2742 116.307 39.3517C114.121 37.4292 113.024 34.561 113.024 30.7516V23.1551C113.024 19.145 114.107 16.0939 116.275 14.0064C118.443 11.9188 121.713 10.875 126.089 10.875C130.465 10.875 133.623 11.8876 135.813 13.9127C137.999 15.9378 139.096 18.8952 139.096 22.7849V27.5266C139.096 28.0128 138.855 28.2536 138.369 28.2536H120.138V30.136C120.138 32.3217 120.616 33.9365 121.566 34.9669C122.516 36.0018 124.086 36.5147 126.276 36.5147C127.895 36.5147 129.162 36.2516 130.077 35.7252C130.987 35.1988 131.446 34.4093 131.446 33.3566C131.446 32.8704 131.691 32.6251 132.178 32.6251H137.771C138.217 32.6251 138.458 32.8481 138.498 33.2942C138.619 36.2114 137.615 38.4283 135.492 39.9494C133.369 41.4705 130.255 42.2288 126.165 42.2288L126.151 42.2377ZM120.134 23.396H131.986V23.0927C131.986 20.8668 131.508 19.2253 130.558 18.1681C129.608 17.1154 128.136 16.5891 126.151 16.5891C124.166 16.5891 122.565 17.1288 121.592 18.1994C120.62 19.2744 120.134 20.9248 120.134 23.1507V23.396Z" fill="#4F7371"></path>
</svg>
